<svg width="50" height="51" viewBox="0 0 50 51" fill="none" xmlns="http://www.w3.org/2000/svg">
<path d="M44.5642 41.0452C42.8082 39.2761 38.5553 36.6942 36.4919 35.6537C33.8048 34.3003 33.5837 34.1898 31.4716 35.7588C30.0628 36.8059 29.1262 37.7413 27.4775 37.3897C25.8287 37.0381 22.2459 35.0555 19.1088 31.9286C15.9716 28.8016 13.874 25.1151 13.5212 23.472C13.1685 21.8289 14.1194 20.9034 15.1567 19.4914C16.6185 17.5011 16.508 17.1694 15.2584 14.4825C14.2842 12.3927 11.627 8.17987 9.85107 6.43283C7.95131 4.55642 7.95131 4.88813 6.72719 5.39677C5.73062 5.81604 4.77453 6.3257 3.87092 6.91935C2.10165 8.09473 1.1197 9.07108 0.432999 10.5384C-0.2537 12.0057 -0.562217 15.4456 2.98407 21.8875C6.53036 28.3294 9.0184 31.6234 14.1681 36.7584C19.3178 41.8933 23.2776 44.6543 29.0665 47.9007C36.2276 51.9112 38.9744 51.1294 40.4462 50.4439C41.9181 49.7583 42.8989 48.7853 44.0766 47.0161C44.6718 46.1141 45.1826 45.1591 45.6026 44.1634C46.1123 42.9438 46.4441 42.9438 44.5642 41.0452Z" fill="#F9EAB6"/>
<path d="M46.7203 34.1273C45.1551 32.5504 41.3645 30.2492 39.5254 29.3218C37.1304 28.1155 36.9333 28.017 35.0508 29.4154C33.7951 30.3487 32.9603 31.1825 31.4908 30.8691C30.0212 30.5557 26.8279 28.7886 24.0317 26.0015C21.2356 23.2144 19.3659 19.9287 19.0515 18.4642C18.7371 16.9997 19.5847 16.1748 20.5092 14.9162C21.8122 13.1423 21.7136 12.8466 20.5999 10.4518C19.7316 8.58912 17.3632 4.83423 15.7803 3.27709C14.087 1.60463 14.087 1.90029 12.996 2.35364C12.1077 2.72734 11.2556 3.1816 10.4502 3.71072C8.87321 4.75834 7.99799 5.62857 7.38593 6.93638C6.77388 8.24418 6.49889 11.3102 9.65972 17.0519C12.8205 22.7936 15.0381 25.7295 19.6281 30.3064C24.218 34.8832 27.7475 37.3441 32.9071 40.2376C39.2898 43.8121 41.7381 43.1154 43.0499 42.5043C44.3617 41.8933 45.236 41.026 46.2856 39.4492C46.8162 38.6452 47.2715 37.794 47.6458 36.9065C48.1001 35.8194 48.3958 35.8194 46.7203 34.1273Z" stroke="#7EB693" stroke-width="3" stroke-miterlimit="10"/>
</svg>
